<svg version="1.1" xmlns="http://www.w3.org/2000/svg" xmlns:xlink="http://www.w3.org/1999/xlink" width="291.5164" height="43.16955" viewBox="0,0,291.5164,43.16955"><g transform="translate(-94.2418,-158.63494)"><g data-paper-data="{&quot;isPaintingLayer&quot;:true}" fill-rule="nonzero" stroke-linecap="butt" stroke-linejoin="miter" stroke-miterlimit="10" stroke-dasharray="" stroke-dashoffset="0" style="mix-blend-mode: normal"><g fill="#000000" stroke="#ffffff" stroke-width="2"><path d="M223.40461,186.40889l-0.02584,-7.54521l3.66329,0.00455l0.00765,7.54066h4.98768v3.53118h-4.88972l-0.00618,7.6482l5.08396,-0.00003l-0.00117,3.17492l-8.81965,0.03712l0.0167,-10.86021h-5.22614v-3.53118z" data-paper-data="{&quot;index&quot;:null}"/><path d="M234.91045,178.74911l3.73686,-0.02421l0.00619,7.96146h11.59897l-0.00813,14.03346l-3.28313,0.03023l-0.00521,-10.5325h-8.40047l-0.00765,10.46363l-3.66327,0.00455z"/><path d="M252.21788,199.28507v-11.10397l1.36923,-1.34645h11.0698l1.4417,1.48311v5.96954l-1.4417,1.53281h-8.9907l0.00025,2.15035l10.27668,-0.03273l-0.02388,1.58727l-1.15404,1.18581l-11.31477,0.00456zM262.9279,192.64269l0.01708,-2.26666l-7.22198,-0.04711l-0.05539,2.33085z"/></g><g fill="#ffffff" stroke="none" stroke-width="0"><path d="M275.8941,175.22463l-0.04555,-13.30249l6.45851,0.00802l0.01349,13.29447h8.79348v7.39348h-8.62077l-0.01091,12.31619l8.96321,-0.00005l-0.00207,5.5975l-15.54938,0.06543l0.02945,-17.97906h-9.21389v-7.39348z" data-paper-data="{&quot;index&quot;:null}"/><path d="M296.80987,200.66579v-25.38206h6.14722v1.98297l2.37957,-1.78467l16.84006,-0.00522l-0.13099,6.8915l-16.50966,0.04906l-2.57897,2.18634v16.06208z"/><path d="M339.29666,201.1825l-6.58823,0.05703l-0.03075,-26.11581l6.50085,0.03608z" data-paper-data="{&quot;index&quot;:null}"/><path d="M332.66286,162.56447l6.45851,0.00802l0.02716,6.21732l-6.47857,0.03618z" data-paper-data="{&quot;index&quot;:null}"/><path d="M346.5882,198.56074v-20.36679l2.18998,-2.46965h17.70534l2.55658,2.72031l0.12534,14.64842l7.56534,8.27123l-4.80798,0.00081l-3.19602,-2.92969l-2.4939,2.74881h-17.67325zM363.96877,195.35617l0.02732,-13.13635l-11.8017,-0.08641l-0.0886,13.25408z"/><path d="M379.18077,200.92608v-38.52496h6.57743v38.52496z"/></g><g fill="#ffffff" stroke="none" stroke-width="0"><path d="M94.2418,200.65985v-25.38207h6.14722v1.98297l2.37956,-1.78468l16.84006,-0.00521l-0.13098,6.89149l-16.50967,0.04907l-2.57897,2.18633v16.06208z"/><path d="M123.22461,198.47333v-20.36679l2.51143,-2.46965h20.30413l2.64436,2.72033v19.92812l-2.64436,2.81147h-20.55479zM142.86883,195.26876l0.03134,-13.13635l-13.24648,-0.0864l-0.1016,13.25408z"/><path d="M152.12978,198.36366v-20.36679l2.18999,-2.46965h17.70534l2.55657,2.72031l0.12534,14.64842l7.56534,8.27123l-4.80798,0.00081l-3.19602,-2.92969l-2.4939,2.74881h-17.67325zM169.51036,195.15909l0.02732,-13.13635l-11.8017,-0.08641l-0.0886,13.25408z"/><path d="M183.85498,198.19132v-20.36679l2.18998,-2.46965h15.26754l-0.00142,-16.71994l5.05846,0.01347l0.06267,34.0752l7.56534,8.27124l-4.80799,0.00081l-3.19602,-2.92969l-2.4939,2.74881h-17.67326zM201.23555,194.98676l0.02733,-13.13634l-11.8017,-0.0864l-0.08859,13.25408z"/></g><g fill="#000000" stroke="#ffffff" stroke-width="2"><path d="M222.9492,172.63989v-11.10398l1.36923,-1.34645h11.0698l1.44171,1.48311v10.8648l-1.44171,1.53281h-11.20647zM233.65922,170.89276l0.01709,-7.16195l-7.22199,-0.0471l-0.05539,7.22612z"/><path d="M240.01664,174.06253v-3.53118h5.22615l-0.0167,-10.31104l8.81965,0.03712l0.00117,3.17491l-5.08396,-0.00003l0.00619,7.09903h4.88972v3.53118h-4.98768l-0.00765,8.08983l-3.66329,0.00455l0.02584,-8.09438z"/></g></g></g></svg>