<svg version="1.1" xmlns="http://www.w3.org/2000/svg" xmlns:xlink="http://www.w3.org/1999/xlink" width="38.50349" height="42.67052" viewBox="0,0,38.50349,42.67052"><g transform="translate(-300.196,-158.23506)"><g data-paper-data="{&quot;isPaintingLayer&quot;:true}" fill-rule="nonzero" stroke-linecap="butt" stroke-linejoin="miter" stroke-miterlimit="10" stroke-dasharray="" stroke-dashoffset="0" style="mix-blend-mode: normal"><path d="M312.49444,193.03103l-4.412,-4.72152l29.37397,-27.44833c0,0 0.41513,3.92947 0.57184,5.41278c0.10938,1.0353 -0.79346,3.6386 -1.87997,4.65388c-3.34887,3.12933 -23.65383,22.10318 -23.65383,22.10318z" data-paper-data="{&quot;index&quot;:null}" fill="#ff5600" stroke="#401900" stroke-width="2.5"/><path d="M312.11228,199.13883l-3.07561,-3.29138l-2.43882,2.0634l-3.9443,-4.11372l2.38481,-2.22847l-3.07561,-3.29138l3.43413,-3.209l10.14951,10.86155z" data-paper-data="{&quot;index&quot;:null}" fill="#9a9a9a" stroke="#262626" stroke-width="2.5"/><path d="M312.56873,189.60709c0,0 -0.45959,-0.10182 -0.61115,-0.27078c-0.11438,-0.1275 -0.2185,-0.65401 -0.2185,-0.65401c0,0 1.35893,-0.89274 2.63442,-2.47453c0.33136,-0.41095 0.10143,-1.13366 0.49759,-1.58567c1.00539,-1.14716 2.81729,-2.81209 3.43638,-3.42184c1.5925,-1.56852 -2.87981,3.84887 -1.46209,2.60718c1.70286,-1.49144 8.63534,-8.7563 10.43312,-10.61786c1.29879,-1.34487 2.20074,-1.32407 3.29566,-2.52325c1.09492,-1.19919 1.9198,-3.25484 2.3022,-3.6077c0.56871,-0.52475 -1.86202,3.40567 -0.74745,2.85326c1.11458,-0.55241 2.83952,-4.11292 2.98674,-3.9631c0.18621,0.1895 0.22364,2.08724 -0.58429,2.94693c-0.1896,0.20175 -2.26936,1.55883 -3.48225,2.81812c-0.61867,0.64235 -1.43397,1.39512 -0.96734,1.3386c0.44819,-0.05429 1.50946,-0.20402 1.07834,0.05872c-3.3269,2.02756 -6.8526,3.42848 -5.7313,3.66418c0.53277,0.11199 2.93963,-0.97941 2.04778,-0.24964c-0.49792,0.40742 -1.95186,0.82252 -3.46414,2.18829c-0.19061,0.17215 -6.19028,5.29797 -7.08,6.40461c-0.78052,0.97085 3.63032,-2.15148 2.30059,-0.88357c-1.09651,1.04553 -2.56402,1.81137 -3.7318,2.73133c-1.69525,1.33547 -2.93247,2.64074 -2.93247,2.64074z" data-paper-data="{&quot;index&quot;:null}" fill="#ff0000" stroke="none" stroke-width="0"/></g></g></svg>